<?xml version="1.0" standalone="no"?><!DOCTYPE svg PUBLIC "-//W3C//DTD SVG 1.1//EN" "http://www.w3.org/Graphics/SVG/1.1/DTD/svg11.dtd"><svg t="1555850454900" class="icon" style="" viewBox="0 0 1024 1024" version="1.1" xmlns="http://www.w3.org/2000/svg" p-id="3716" xmlns:xlink="http://www.w3.org/1999/xlink" width="200" height="200"><defs><style type="text/css"></style></defs><path d="M0 0" p-id="3717" fill="#607D8B"></path><path d="M514.798933 228.932267c-62.464 9.250133-127.0784 18.807467-163.9424 76.5952-27.4432 43.076267-36.010667 111.547733-27.2384 202.717866 16.6912 97.143467 90.794667 194.389333 183.0912 194.389334 106.325333 0 192-128.341333 192-234.666667 0-0.853333 0.398222-1.604267 0.477867-2.389333-8.123733-118.749867-60.552533-215.210667-87.1424-262.3488-26.373689 15.1552-61.019022 20.309333-97.245867 25.7024z" p-id="3718" fill="#607D8B"></path><path d="M890.197333 845.425778c-0.477867-2.025244-0.785067-4.004978-1.809066-5.882311-34.133333-63.044267-30.993067-171.9296-27.727645-287.197867 4.778667-165.137067 10.148978-352.290133-95.288889-460.8C706.423467 30.890667 621.226667 1.365333 504.866133 1.365333c-90.453333 0-161.962667 27.511467-212.548266 81.681067-114.551467 122.811733-98.5088 355.498667-86.7328 525.494044 4.846933 70.212267 11.502933 166.217956-3.447467 178.005334a22.459733 22.459733 0 0 0-6.0416 5.666133C127.5904 828.893867 85.333333 903.441067 85.333333 1001.335467c0 11.810133 9.454933 21.333333 21.333334 21.333333h810.666666a21.321956 21.321956 0 0 0 21.333334-21.333333c0.068267-63.010133-17.92-115.882667-48.469334-155.909689z m-230.877866-61.690311H607.459556c25.782044-68.266667 44.578133-77.892267 58.845866-112.0256-41.528889 48.662756-97.200356 77.892267-159.596089 77.892266-61.610667 0-115.746133-26.077867-155.989333-73.864533 7.5776 32.267378 16.0768 39.7312 26.4192 107.997867h-44.2368c-27.7504-102.4-44.509867-189.531022-51.541333-261.0176-2.56-15.416889-3.9936-35.145956-3.9936-50.449067 0-0.580267 0.273067-3.1744 0.341333-3.7888-2.7648-79.325867 9.5232-141.482667 37.137067-184.797867 47.342933-74.205867 128.546133-86.766933 193.672533-96.426666 39.970133-5.905067 77.664711-11.810133 94.4128-30.173867 4.744533-5.188267 11.605333-7.953067 18.670933-6.929067a21.458489 21.458489 0 0 1 16.224711 11.434667c2.116267 4.1984 5.313422 18.397867 9.250134 25.463467 46.785422 83.012267 184.297244 323.618133 12.242489 596.6848z" p-id="3719" fill="#607D8B"></path></svg>