<?xml version="1.0" standalone="no"?><!DOCTYPE svg PUBLIC "-//W3C//DTD SVG 1.1//EN" "http://www.w3.org/Graphics/SVG/1.1/DTD/svg11.dtd"><svg t="1555832809952" class="icon" style="" viewBox="0 0 1025 1024" version="1.1" xmlns="http://www.w3.org/2000/svg" p-id="8508" xmlns:xlink="http://www.w3.org/1999/xlink" width="200.1953125" height="200"><defs><style type="text/css"></style></defs><path d="M433.124582 1020.290515c-126.089743 0-252.179486 0-378.270253 0-0.880043-0.337691-1.732457-0.827855-2.6432-0.99056-30.606065-5.465478-50.14405-28.0171-50.188053-59.240219-0.170892-120.148427-0.187265-240.298901 0.00614-360.449375 0.056282-34.800597 25.037233-59.824527 59.877739-59.884902 121.101125-0.209778 242.203274-0.081864 363.3044-0.084934 13.547551 0 25.948999 3.612271 36.731576 11.966543 16.000416 12.396331 23.489994 28.928866 23.483854 49.04195-0.01535 49.695842-0.00307 99.394754-0.00307 149.09162 0 69.691245 0.051165 139.381467-0.028653 209.072713-0.028653 25.352411-11.19497 44.220131-34.037211 55.520501C445.685665 1017.141802 439.223486 1018.34828 433.124582 1020.290515z" p-id="8509" fill="#607D8B"></path><path d="M971.387735 1020.290515c-126.089743 0-252.18051 0-378.269229 0-0.655939-0.339738-1.283226-0.895393-1.971911-0.98749-28.4254-3.800559-50.450019-29.317723-50.373271-60.551074 0.291642-119.389134 0.125867-238.778268 0.106424-358.167403-0.002047-13.94357 3.582595-26.691919 12.251022-37.786605 12.633738-16.169261 29.432333-23.239284 49.748031-23.199375 60.551074 0.112564 121.102149 0.039909 181.653223 0.039909 59.410088 0 118.819153 0.059352 178.227194-0.032746 19.396769-0.029676 35.659151 6.517437 48.239677 21.577434 10.025331 12.000312 13.514805 25.956162 13.490246 41.346687-0.137123 81.877799-0.064468 163.753551-0.064468 245.632373 0 36.749996-0.045025 73.498968 0.013303 110.248963 0.038886 25.665543-11.04352 44.64378-34.137495 55.982012C984.443076 1017.268692 977.715861 1018.372839 971.387735 1020.290515z" p-id="8510" fill="#607D8B"></path><path d="M243.99406 4.209882c60.366879 0 120.733759-0.070608 181.099614 0.029676 29.245068 0.049119 52.29504 17.965164 58.663074 45.434795 1.022283 4.41352 1.587148 9.04091 1.590218 13.570063 0.085958 120.541377 0.170892 241.084801 0 361.628224-0.041956 30.41266-20.360723 53.779857-50.222845 58.812477-3.538593 0.596588-7.205099 0.592494-10.812253 0.594541-120.5424 0.027629-241.084801 0.050142-361.628224 0.005117-35.384905-0.013303-60.621682-24.784476-60.670801-60.191894-0.162706-119.970372-0.167822-239.942791 0.007163-359.914186 0.051165-35.134195 25.177426-59.871599 60.303434-59.937091C122.880655 4.130064 183.436846 4.210905 243.99406 4.209882z" p-id="8511" fill="#607D8B"></path><path d="M781.861194 487.774249c-51.420113-0.001023-102.839203 0.095167-154.258293-0.029676-43.521213-0.106424-78.010725-28.78151-85.324294-70.856791-0.973164-5.598508-1.327228-11.368932-1.332345-17.059538-0.076748-101.316523-0.106424-202.633047-0.030699-303.947524 0.031722-43.372833 26.966165-77.455069 68.061119-86.114287 6.279007-1.323135 12.842493-1.806135 19.274996-1.812275C730.899522 7.843642 833.549413 7.833409 936.197258 7.895831c50.334385 0.029676 87.449701 36.917818 87.512123 87.206154 0.124843 101.886505 0.107447 203.774033 0.002047 305.661561-0.042979 42.196031-26.187429 75.498508-66.660212 84.883249-6.957459 1.612731-14.322194 2.01796-21.502733 2.041496C884.319727 487.85202 833.091996 487.775272 781.861194 487.774249zM782.825149 418.059468c50.854225 0 101.709473 0.008186 152.563698-0.005117 12.543687-0.002047 18.437931-5.848195 18.441001-18.521842 0.028653-101.137445 0.029676-202.275913-0.002047-303.413358-0.005117-12.650111-5.878894-18.434861-18.558681-18.436908-101.899808-0.019443-203.798593-0.01842-305.6984-0.002047-13.025665 0.002047-18.629289 5.684466-18.632359 18.847254-0.01228 100.946087-0.013303 201.89422 0.001023 302.84133 0.002047 13.038968 5.698792 18.685571 18.750039 18.687618C680.735006 418.064584 731.779565 418.059468 782.825149 418.059468z" p-id="8512" fill="#607D8B"></path></svg>