<?xml version="1.0" standalone="no"?><!DOCTYPE svg PUBLIC "-//W3C//DTD SVG 1.1//EN" "http://www.w3.org/Graphics/SVG/1.1/DTD/svg11.dtd"><svg t="1555952392174" class="icon" style="" viewBox="0 0 1024 1024" version="1.1" xmlns="http://www.w3.org/2000/svg" p-id="1992" xmlns:xlink="http://www.w3.org/1999/xlink" width="32" height="32"><defs><style type="text/css"></style></defs><path d="M172.796261 970.115368l37.75764-189.172177a32.893944 32.893944 0 0 1 32.253984-26.430348 22.07862 22.07862 0 0 1 21.694644 26.430348l-37.821636 189.172177h675.733767L814.356163 538.910318H151.549589l-83.834761 431.141054h105.081433zM593.12199 323.435785h269.423161a107.769264 107.769264 0 0 1 10.687332 215.026561l81.850885 408.934442a63.996 63.996 0 0 1-62.716081 76.603212H78.274168a63.996 63.996 0 0 1-62.71608-76.539216l81.786888-408.998438a107.769264 107.769264 0 0 1 10.687332-215.026561h269.423161V107.83326a107.769264 107.769264 0 1 1 215.666521 0v215.602525z m0 53.884632H108.1603a53.884632 53.884632 0 1 0 0 107.769265H862.545151a53.884632 53.884632 0 1 0 0-107.769265h-269.423161z m-53.884632-53.884632V107.83326a53.884632 53.884632 0 1 0-107.769264 0v215.602525H539.173362z" fill="#607D8B" p-id="1993"></path></svg>